<?xml version="1.0" encoding="UTF-8" standalone="no"?>
<svg
   viewBox="0 0 34.262592 43.318111"
   width="68.525185"
   height="86.636223"
   version="1.1"
   id="svg6"
   xmlns="http://www.w3.org/2000/svg"
   xmlns:svg="http://www.w3.org/2000/svg">
  <defs
     id="defs6" />
  <path
     fill="#283d5b"
     d="m 17.590369,0.51507368 c -1.353,-0.153 -1.965,0.46 -3.126,1.17100002 -4.137,2.534 -8.438,4.944 -12.574,7.478 -0.378,0.231 -0.768,0.474 -1.01199996,0.8440003 -0.306,0.462 -0.337,1.049 -0.34,1.603 -0.009,1.561 -0.078,3.879 0.059,5.433 0.362,4.124 -0.321,6.988 0.04,11.112 0.021,0.243 0.044,0.491 0.14,0.715 0.177,0.411 0.41299996,0.78 1.18499996,1.28 6.005,3.892 11.665,6.716 18.121,10.235 1.748,0.953 3.866,1.877 5.46,2.427 0,0 0.019,-1.463 -0.047,-2.786 -0.079,-1.578 -0.103,-2.451 0.132,-4.014 0.056,-0.371 0.105,-1.228 0.105,-1.228 0,0 1.105,-0.729 1.437,-0.915 0.665,-0.372 1.65,-1.058 2.844,-1.764 1.051,-0.622 2.674,-1.842 3.309,-2.885 0.504,-0.826 0.383,-3.131 0.24,-4.927 -0.208,-2.621 -0.146,-5.929 -0.079,-8.928 0.053,-2.377 0.62,-4.364 -0.213,-5.4480003 -0.71,-0.924 -2.404,-1.646 -3.44,-2.18 -2.715,-1.398 -6.713,-4.183 -9.396,-5.85 -1.435,-0.89200002 -2.205,-1.28600002 -2.845,-1.37300002 z"
     id="path1" />
  <path
     fill="#d6e5e5"
     d="m 11.703369,10.164074 c -1.272,0.165 -2.11,1.113 -2.49,2.339 -0.059,0.19 -0.094,0.685 -0.079,0.883 0.018,0.223 0.244,0.699 0.357,0.892 0.643,1.098 1.745,1.735 3,1.52 0.33,-0.057 1.15,-0.409 1.15,-0.409 0,0 0.857,0.537 1.262,0.745 2.066,1.062 3.804,2.212 5.785,3.245 -0.344,1.172 0.289,2.411 1.31,3.082 0.914,0.601 2.1,0.382 3.171,0.161 0.402,-0.083 0.824,-0.389 1.133,-0.66 0.466,-0.408 0.601,-0.883 0.676,-1.498 0.154,-1.271 -0.012,-2.538 -1.104,-3.205 -0.367,-0.224 -0.615,-0.427 -1.036,-0.514 -0.631,-0.13 -1.149,-0.125 -1.809,0.051 -0.399,0.107 -1.035,0.543 -1.035,0.543 0,0 -0.756,-0.376 -1.112,-0.568 -1.912,-1.03 -3.396,-2.082 -5.09,-2.923 -0.117,-0.058 -1.041,-0.572 -1.041,-0.572 0,0 0.007,-0.939 -0.155,-1.285 -0.617,-1.313 -1.452,-2.0130003 -2.893,-1.827 z"
     id="path2" />
  <path
     fill="#d6e5e5"
     d="m 18.368369,21.512074 c -1.63,0.97 -3.29,1.686 -4.907,2.795 -0.889,-0.66 -1.616,-0.894 -2.79,-0.546 -0.532,0.158 -1.018,0.697 -1.384,1.114 -0.548,0.622 -0.527,1.775 -0.13,2.503 0.397,0.728 0.839,1.365 1.625,1.625 0.701,0.232 1.45,0.313 2.145,0.065 0.695,-0.248 1.398,-0.923 1.463,-1.658 0.046,-0.526 0.061,-0.914 0.061,-0.914 0,0 3.171,-1.944 4.638,-2.716 0.085,-0.045 0.488,-0.38 0.488,-0.38 0,0 -0.547,-0.56 -0.624,-0.677 -0.348,-0.527 -0.412,-0.674 -0.585,-1.211 z"
     id="path3" />
  <path
     d="m 26.276369,16.927074 c -1.333,-0.953 -2.919,-0.972 -4.292,-0.16 -1.25,-0.637 -2.456,-1.344 -3.658,-2.069 -1.013,-0.61 -2.058,-1.157 -3.093,-1.727 -0.042,-0.819 -0.258,-1.519 -0.793,-2.199 -0.681,-0.8650003 -1.652,-1.2230003 -2.737,-1.1080003 -0.025,0.003 -0.042,0.015 -0.065,0.02 -0.023,10e-4 -0.043,-0.006 -0.068,-0.003 -2.031,0.3240003 -3.57,2.7010003 -2.627,4.6260003 0.452,0.922 1.294,1.691 2.304,1.938 0.841,0.205 1.587,-0.002 2.347,-0.306 0.885,0.538 1.803,1.01 2.704,1.521 1.285,0.729 2.55,1.492 3.852,2.191 -0.172,1.571 0.864,3.223 2.446,3.602 1.598,0.383 4.019,-0.138 4.673,-1.829 0.565,-1.462 0.349,-3.538 -0.993,-4.497 z m 0.166,3.757 c -0.275,1.383 -1.904,1.724 -3.12,1.664 -1.39,-0.069 -2.495,-1.467 -2.151,-2.836 0.052,-0.207 -0.032,-0.461 -0.23,-0.565 -1.678,-0.882 -3.283,-1.894 -4.947,-2.801 -0.62,-0.338 -1.242,-0.661 -1.844,-1.031 -0.448,-0.275 -0.622,-0.209 -1.026,-0.051 -0.612,0.239 -1.204,0.381 -1.849,0.148 -0.706,-0.255 -1.248,-0.867 -1.533,-1.549 -0.556,-1.331 0.798,-2.763 2.034,-3 0.82,-0.07 1.478,0.151 1.972,0.843 0.404,0.565 0.506,1.088 0.504,1.772 0,0.173 0.095,0.347 0.248,0.432 1.109,0.616 2.235,1.197 3.323,1.852 1.288,0.776 2.574,1.54 3.921,2.21 0.155,0.077 0.352,0.103 0.505,0 0.943,-0.638 2.101,-0.872 3.119,-0.242 1.132,0.702 1.323,1.902 1.074,3.154 z"
     id="path4" />
  <path
     d="m 18.850369,21.379074 c -0.034,-0.103 -0.093,-0.172 -0.161,-0.228 -0.03,-0.03 -0.065,-0.052 -0.102,-0.074 0,0 0,0 0,0 -0.133,-0.078 -0.297,-0.1 -0.471,0.003 -1.537,0.906 -3.158,1.661 -4.653,2.637 -1.194,-0.747 -2.685,-0.879 -3.835,0.095 -0.559,0.474 -1.066,1.048 -1.206,1.786 -0.136,0.719 -0.007,1.46 0.341,2.1 0.786,1.446 2.176,2.261 3.857,1.965 0.766,-0.135 1.468,-0.588 1.904,-1.234 0.334,-0.495 0.388,-1.064 0.414,-1.641 0.676,-0.413 1.354,-0.822 2.035,-1.225 0.987,-0.584 2.074,-1.076 2.958,-1.809 0.21,-0.174 0.175,-0.528 0,-0.707 -0.503,-0.515 -0.851,-0.964 -1.081,-1.668 z m -2.269,3.253 c -0.773,0.457 -1.6,0.882 -2.333,1.403 -0.356,0.253 -0.3,0.613 -0.329,1.011 -0.062,0.851 -0.624,1.475 -1.476,1.638 -1.565,0.3 -3.129,-0.986 -3.074,-2.596 0.027,-0.801 0.769,-1.634 1.522,-1.868 0.882,-0.273 1.6,-0.001 2.318,0.519 0.134,0.097 0.37,0.091 0.505,0 1.404,-0.951 2.932,-1.682 4.405,-2.513 0.191,0.403 0.432,0.758 0.719,1.1 -0.708,0.493 -1.524,0.873 -2.257,1.306 z"
     id="path5" />
  <path
     d="m 33.930369,21.219074 c -0.032,-2.026 -0.014,-4.059 0.06,-6.084 0.055,-1.53 0.557,-3.332 0.042,-4.824 -0.47,-1.3620003 -2.035,-2.0560003 -3.231,-2.6490003 -1.403,-0.695 -2.746,-1.485 -4.072,-2.318 -1.642,-1.031 -3.254,-2.108 -4.885,-3.157 -1.233,-0.793 -2.632,-1.92200002 -4.12,-2.15600002 -0.023,-0.004 -0.041,0.003 -0.063,0.003 -0.024,-0.005 -0.043,-0.018 -0.07,-0.02 -0.92,-0.079 -1.703,0.179 -2.477,0.663 -0.99,0.61900002 -1.98,1.23500002 -2.982,1.83400002 -2.167,1.295 -4.351,2.56 -6.525,3.842 -1.119,0.66 -2.236,1.324 -3.347,1.999 -0.846,0.514 -1.76299996,0.978 -2.07499996,1.9880003 -0.283,0.916 -0.155,2.011 -0.165,2.959 -0.011,1.042 -0.019,2.086 0.035,3.128 0.115,2.21 0.142,4.371 0.043,6.583 -0.049,1.095 -0.087,2.191 -0.062,3.287 0.022,0.946 -0.06,2.11 0.381,2.977 0.399,0.784 1.16999996,1.231 1.88599996,1.689 1.034,0.661 2.08,1.304 3.134,1.933 1.991,1.186 4.013,2.318 6.049,3.426 2.318,1.262 4.652,2.496 6.974,3.75 2.256,1.219 4.525,2.374 6.951,3.222 0.314,0.11 0.629,-0.176 0.633,-0.482 0.016,-1.385 -0.077,-2.765 -0.099,-4.149 -0.02,-1.208 0.175,-2.391 0.265,-3.589 0.92,-0.598 1.86,-1.164 2.786,-1.753 1.425,-0.906 2.906,-1.731 4.075,-2.977 0.421,-0.449 0.794,-0.934 0.943,-1.54 0.179,-0.73 0.183,-1.512 0.172,-2.259 -0.03,-1.777 -0.228,-3.547 -0.256,-5.326 z m -0.759,4.834 c 0.031,0.843 0.098,1.796 -0.156,2.613 -0.237,0.761 -1.025,1.375 -1.619,1.862 -1.398,1.146 -3.043,2.052 -4.593,2.976 -0.324,0.193 -0.64,0.402 -0.956,0.607 -0.197,0.129 -0.471,0.256 -0.572,0.479 -0.112,0.249 -0.069,0.622 -0.092,0.888 -0.039,0.468 -0.119,0.931 -0.167,1.399 -0.179,1.727 -0.014,3.472 0.015,5.208 -3.861,-1.444 -7.443,-3.611 -11.062,-5.557 -3.852,-2.071 -7.678,-4.192 -11.36,-6.556 -0.81,-0.52 -1.395,-0.935 -1.483,-1.938 -0.094,-1.082 -0.113,-2.17 -0.091,-3.255 0.04,-2.035 0.217,-4.066 0.156,-6.102 -0.06,-1.998 -0.19,-3.972 -0.165,-5.974 0.011,-0.909 -0.19099996,-2.112 0.587,-2.7560003 0.859,-0.712 1.966,-1.226 2.923,-1.796 2.273,-1.355 4.564,-2.68 6.842,-4.027 1.147,-0.679 2.297,-1.355 3.428,-2.061 0.896,-0.559 1.628,-1.11800002 2.721,-1.048 0.626,0.115 1.191,0.435 1.737,0.75 0.81,0.468 1.597,0.978 2.383,1.486 1.664,1.075 3.312,2.175 4.996,3.22 1.477,0.917 3.01,1.683 4.536,2.509 0.686,0.371 1.587,0.826 1.889,1.5970003 0.3,0.769 0.143,1.73 0.073,2.528 -0.194,2.207 -0.218,4.422 -0.22,6.637 -0.003,2.112 0.173,4.203 0.25,6.311 z"
     id="path6" />
</svg>
