<?xml version="1.0" encoding="UTF-8" standalone="no"?>
<svg
   viewBox="0 0 40 40"
   width="80"
   height="80"
   version="1.1"
   id="svg20"
   xmlns="http://www.w3.org/2000/svg"
   xmlns:svg="http://www.w3.org/2000/svg">
  <defs
     id="defs20" />
  <linearGradient
     id="O9~7NXxa2gFgECs6aGOMga"
     x1="24"
     x2="24"
     y1="46"
     y2="6"
     gradientTransform="matrix(1,0,0,-1,-4,46)"
     gradientUnits="userSpaceOnUse">
    <stop
       offset="0"
       stop-color="#f44f5a"
       id="stop1" />
    <stop
       offset=".443"
       stop-color="#ee3d4a"
       id="stop2" />
    <stop
       offset="1"
       stop-color="#e52030"
       id="stop3" />
  </linearGradient>
  <path
     fill="url(#O9~7NXxa2gFgECs6aGOMga)"
     d="M 40,20 C 40,31 31,40 20,40 9,40 0,31 0,20 0,9 9,0 20,0 31,0 40,9 40,20 Z"
     id="path3"
     style="fill:url(#O9~7NXxa2gFgECs6aGOMga)" />
  <path
     fill="#ffffff"
     d="m 22,12.2 c -0.6,-0.6 -1.5,-0.9 -2.5,-1.1 -0.4,-0.5 -1,-1 -1.9,-1.5 C 16,8.8 14.098,8.342 12.298,8.642 L 11.9,8.7 c -0.1,0 -0.204,0.063 -0.4,0.1 0.21,-0.04 1,0.4 1.6,0.6 -0.46,0.167 -1.109,0.359 -1.2,0.4 -0.221,0.101 -0.4,0.6 -0.4,0.7 1.3,-0.1 3.2,0 4.6,0.4 -1.1,0.1 -2.1,0.4 -2.8,0.8 -0.5,0.3 -1,0.6 -1.3,1.1 -1.2,1.3 -1.7,3.5 -1.3,5.9 0.5,2.7 2.4,11.4 3.4,16.3 l 0.3,1.6 c 0,0 3.5,0.4 5.6,0.4 1.2,0 3.2,0.3 3.7,-0.2 -0.1,0 -0.6,-0.6 -0.8,-1.1 -0.5,-1 -1,-1.9 -1.4,-2.6 C 20.3,30.6 19,27.2 19.6,25 19.7,24.6 19.7,22.9 20,22.7 22.6,21 22.4,22.6 23.5,21.9 24,21.5 24.5,21 24.7,20.4 25.4,18.1 23.8,14 22,12.2 Z"
     id="path4" />
  <path
     fill="#ffffff"
     d="M 20,38 C 10.1,38 2,29.9 2,20 2,10.1 10.1,2 20,2 c 9.9,0 18,8.1 18,18 0,9.9 -8.1,18 -18,18 z M 20,4 C 11.2,4 4,11.2 4,20 4,28.8 11.2,36 20,36 28.8,36 36,28.8 36,20 36,11.2 28.8,4 20,4 Z"
     id="path5" />
  <path
     fill="#0f5094"
     d="m 15,17.1 c -0.6,0 -1.2,0.5 -1.2,1.2 0,0.6 0.5,1.2 1.2,1.2 0.6,0 1.2,-0.5 1.2,-1.2 -0.1,-0.6 -0.6,-1.2 -1.2,-1.2 z m 0.5,1.1 c -0.2,0 -0.3,-0.1 -0.3,-0.3 0,-0.2 0.1,-0.3 0.3,-0.3 0.2,0 0.3,0.1 0.3,0.3 0,0.2 -0.2,0.3 -0.3,0.3 z m 7.3,-1.6 c -0.6,0 -1,0.5 -1,1 0,0.6 0.5,1 1,1 0.6,0 1,-0.5 1,-1 0,-0.5 -0.5,-1 -1,-1 z m 0.4,0.9 c -0.1,0 -0.3,-0.1 -0.3,-0.3 0,-0.1 0.1,-0.3 0.3,-0.3 0.1,0 0.3,0.1 0.3,0.3 0,0.2 -0.1,0.3 -0.3,0.3 z m -7.9,-2.6 c 0,0 -0.9,-0.4 -1.7,0.1 -0.9,0.5 -0.8,1.1 -0.8,1.1 0,0 -0.5,-1 0.8,-1.5 1.1,-0.5 1.7,0.3 1.7,0.3 m 8.1,-0.1 c 0,0 -0.6,-0.4 -1.1,-0.4 -1,0 -1.3,0.5 -1.3,0.5 0,0 0.2,-1.1 1.5,-0.9 0.6,0.2 0.9,0.8 0.9,0.8"
     id="path6" />
  <linearGradient
     id="O9~7NXxa2gFgECs6aGOMgb"
     x1="24.014"
     x2="24.014"
     y1="16.503"
     y2="10.672"
     gradientTransform="matrix(1,0,0,-1,-4,46)"
     gradientUnits="userSpaceOnUse">
    <stop
       offset="0"
       stop-color="#a2cf38"
       id="stop6" />
    <stop
       offset=".347"
       stop-color="#9ecc3a"
       id="stop7" />
    <stop
       offset=".66"
       stop-color="#93c440"
       id="stop8" />
    <stop
       offset=".959"
       stop-color="#81b549"
       id="stop9" />
    <stop
       offset="1"
       stop-color="#7eb34b"
       id="stop10" />
  </linearGradient>
  <path
     fill="url(#O9~7NXxa2gFgECs6aGOMgb)"
     d="m 19.3,31.7 c 0,0 -4.3,-2.3 -4.4,-1.4 -0.1,0.9 0,4.7 0.5,5 0.5,0.3 4.1,-1.9 4.1,-1.9 z M 21,31.6 c 0,0 2.9,-2.2 3.6,-2.1 0.6,0.1 0.8,4.7 0.2,4.9 -0.6,0.2 -3.9,-1.2 -3.9,-1.2 z"
     id="path10"
     style="fill:url(#O9~7NXxa2gFgECs6aGOMgb)" />
  <linearGradient
     id="O9~7NXxa2gFgECs6aGOMgc"
     x1="23.933001"
     x2="23.933001"
     y1="15.018"
     y2="11.963"
     gradientTransform="matrix(1,0,0,-1,-4,46)"
     gradientUnits="userSpaceOnUse">
    <stop
       offset="0"
       stop-color="#87b642"
       id="stop11" />
    <stop
       offset=".27"
       stop-color="#83b443"
       id="stop12" />
    <stop
       offset=".514"
       stop-color="#78ae48"
       id="stop13" />
    <stop
       offset=".748"
       stop-color="#66a44f"
       id="stop14" />
    <stop
       offset=".974"
       stop-color="#4c965a"
       id="stop15" />
    <stop
       offset="1"
       stop-color="#49945b"
       id="stop16" />
  </linearGradient>
  <path
     fill="url(#O9~7NXxa2gFgECs6aGOMgc)"
     d="m 18.5,31.7 c 0,1.5 -0.2,2.1 0.4,2.3 0.6,0.1 1.9,0 2.3,-0.3 0.4,-0.3 0.1,-2.2 -0.1,-2.6 -0.1,-0.3 -2.6,0 -2.6,0.6"
     id="path16"
     style="fill:url(#O9~7NXxa2gFgECs6aGOMgc)" />
  <linearGradient
     id="O9~7NXxa2gFgECs6aGOMgd"
     x1="28.996"
     x2="28.996"
     y1="27.122"
     y2="19.299999"
     gradientTransform="matrix(1,0,0,-1,-4,46)"
     gradientUnits="userSpaceOnUse">
    <stop
       offset="0"
       stop-color="#ffd869"
       id="stop17" />
    <stop
       offset="1"
       stop-color="#fec52b"
       id="stop18" />
  </linearGradient>
  <path
     fill="url(#O9~7NXxa2gFgECs6aGOMgd)"
     d="m 18.3,22.8 c 0.1,-0.7 2,-2.1 3.3,-2.2 1.3,-0.1 1.7,-0.1 2.8,-0.3 1.1,-0.3 3.9,-1 4.7,-1.3 0.8,-0.4 4.1,0.2 1.8,1.5 -1,0.6 -3.7,1.6 -5.7,2.2 -1.9,0.6 -3.1,-0.6 -3.8,0.4 -0.5,0.8 -0.1,1.8 2.2,2 3.1,0.3 6.2,-1.4 6.5,-0.5 0.3,0.9 -2.7,2 -4.6,2.1 -1.8,0 -5.6,-1.2 -6.1,-1.6 -0.5,-0.4 -1.2,-1.3 -1.1,-2.3"
     id="path18"
     style="fill:url(#O9~7NXxa2gFgECs6aGOMgd)" />
  <path
     d="m 32.1,19.25 c -0.47,-0.88 -2.48,-1.04 -3.19,-0.71 -0.59,0.21 -2.26,0.65 -3.48,0.97 l -0.09,0.03 C 25.51,17 24.01,13.5 22.35,11.85 21.64,11.14 20.62,10.83 19.77,10.65 19.31,10.11 18.67,9.62 17.82,9.15 16.01,8.24 14.004,7.844 12.294,8.134 L 11.9,8.2 c -0.14,0 -0.25,0.05 -0.4,0.1 -0.28,0 -0.52,0.22 -0.52,0.5 0,0.27 0.19,0.49 0.46,0.5 h 0.03 c 0.03,0.01 0.1,0.03 0.19,0.06 -0.04,0.03 -0.08,0.05 -0.11,0.09 l -0.2,0.2 C 11.31,9.68 11.28,9.73 11.25,9.78 11.1,10.09 11,10.29 11,10.5 c 0,0.14 0.06,0.27 0.16,0.37 0.1,0.09 0.24,0.14 0.38,0.13 0.58,-0.05 1.3,-0.05 2.05,0 -0.19,0.08 -0.38,0.17 -0.55,0.27 -0.5,0.31 -1.08,0.65 -1.44,1.23 -1.29,1.43 -1.81,3.77 -1.39,6.29 0.29,1.56 1.03,5.06 1.81,8.76 0.54,2.5 1.08,5.05 1.49,7.06 0.18,0.09 0.37,0.17 0.56,0.24 -0.42,-2.04 -0.99,-4.74 -1.56,-7.42 -0.78,-3.69 -1.52,-7.18 -1.81,-8.72 -0.39,-2.37 0.08,-4.56 1.32,-5.95 0.3,-0.47 0.8,-0.77 1.27,-1.05 0.16,-0.09 0.32,-0.17 0.5,-0.25 0,0 1.15,-0.48 2.31,-0.56 -1.38,-0.38 -2.48,-0.4 -2.48,-0.4 -0.38,-0.02 -0.76,-0.04 -1.12,-0.04 -0.36,0 -0.69,0.02 -1,0.04 0,-0.09 0.08,-0.27 0.2,-0.5 L 11.89,9.8 13.15,9.41 11.846,8.882 C 11.736,8.832 11.63,8.82 11.5,8.8 L 11.681,8.75 C 11.797,8.723 11.86,8.7 11.9,8.7 l 0.474,-0.076 c 1.62,-0.27 3.526,0.126 5.206,0.966 0.8,0.44 1.39,0.89 1.81,1.38 l 0.11,0.13 0.17,0.03 c 0.69,0.15 1.68,0.42 2.33,1.07 1.48,1.48 3.01,4.84 2.84,7.3 l 0.05,0.67 0.67,-0.18 C 26.78,19.67 28.45,19.23 29.1,19 l 0.01,-0.01 c 0.56,-0.25 2.25,-0.06 2.55,0.49 0.21,0.4 -0.39,0.81 -0.77,1.03 -1.01,0.6 -3.74,1.6 -5.7,2.19 -0.9,0.29 -1.64,0.16 -2.24,0.07 -0.69,-0.12 -1.18,-0.2 -1.56,0.35 -0.21,0.33 -0.24,0.69 -0.09,0.99 0.16,0.31 0.66,0.85 2.3,0.99 1.56,0.15 3.1,-0.2 4.34,-0.48 1.37,-0.32 2.03,-0.42 2.16,-0.02 0.05,0.14 0.02,0.28 -0.09,0.44 -0.54,0.79 -2.93,1.58 -4.49,1.66 -1.41,0 -4.02,-0.72 -5.37,-1.24 l -0.63,-0.25 -0.05,0.68 c -0.08,1.34 0.31,3.09 1.15,5.21 l 0.24,0.6 0.52,-0.38 c 2.03,-1.5 2.99,-1.84 3.21,-1.82 0.24,0.04 0.44,0.74 0.53,1.91 0.18,2.29 -0.18,2.94 -0.32,2.99 -0.28,0.09 -1.14,-0.16 -1.8,-0.39 l -1.2,-0.42 0.59,1.12 c 0.17,0.32 0.34,0.65 0.49,0.95 0.01,0.02 0.02,0.04 0.03,0.06 0.17,-0.02 0.34,-0.05 0.5,-0.1 -0.02,-0.05 -0.04,-0.1 -0.06,-0.14 -0.18,-0.35 -0.35,-0.68 -0.52,-1 1.63,0.56 1.96,0.45 2.13,0.4 0.75,-0.26 0.77,-2.05 0.66,-3.51 -0.16,-1.97 -0.54,-2.3 -0.95,-2.37 -0.7,-0.08 -2.41,1.05 -3.59,1.91 -0.81,-2.03 -1.18,-3.73 -1.11,-4.99 1.4,0.54 4.08,1.28 5.55,1.28 0.01,0 0.01,0 0.01,0 1.53,-0.08 4.2,-0.85 4.89,-1.88 0.25,-0.36 0.22,-0.68 0.15,-0.88 -0.29,-0.87 -1.37,-0.63 -2.74,-0.31 -1.2,0.27 -2.7,0.62 -4.19,0.47 -1.48,-0.13 -1.82,-0.58 -1.89,-0.71 -0.07,-0.15 -0.05,-0.33 0.06,-0.5 0.17,-0.25 0.35,-0.25 1.06,-0.13 0.62,0.1 1.46,0.24 2.47,-0.08 2.03,-0.61 4.76,-1.62 5.81,-2.24 1.23,-0.7 1.12,-1.36 0.95,-1.69 z M 14.34,37.1 c 0.01,0 0.05,0 0.1,0.01 -0.11,-0.03 -0.23,-0.07 -0.34,-0.12 0.07,0.06 0.15,0.1 0.24,0.11 z"
     opacity="0.07"
     id="path19" />
  <path
     d="m 32.54,19.01 c -0.62,-1.16 -2.96,-1.33 -3.81,-0.94 -0.48,0.18 -1.8,0.53 -2.88,0.81 -0.09,-2.65 -1.61,-5.86 -3.14,-7.39 -0.78,-0.78 -1.87,-1.12 -2.67,-1.3 C 19.55,9.66 18.9,9.18 18.05,8.71 16.16,7.76 14.024,7.334 12.294,7.634 L 11.9,7.7 c -0.19,0 -0.34,0.05 -0.5,0.1 -0.52,0.05 -0.92,0.48 -0.92,1 0,0.3 0.13,0.57 0.32,0.75 -0.16,0.33 -0.3,0.62 -0.3,0.95 0,0.28 0.12,0.54 0.32,0.73 0.21,0.2 0.49,0.29 0.76,0.27 0.08,-0.01 0.17,-0.02 0.26,-0.02 -0.23,0.19 -0.45,0.42 -0.61,0.68 -1.39,1.54 -1.96,4.05 -1.51,6.72 0.29,1.57 1.03,5.06 1.82,8.81 0.5,2.34 1.01,4.73 1.4,6.66 0.19,0.09 0.37,0.18 0.57,0.26 -0.41,-2.01 -0.95,-4.56 -1.49,-7.06 -0.78,-3.7 -1.52,-7.2 -1.81,-8.76 -0.42,-2.52 0.1,-4.86 1.39,-6.29 0.36,-0.58 0.94,-0.92 1.44,-1.23 0.17,-0.1 0.36,-0.19 0.55,-0.27 -0.75,-0.05 -1.47,-0.05 -2.05,0 C 11.4,11.01 11.26,10.96 11.16,10.87 11.06,10.77 11,10.64 11,10.5 c 0,-0.21 0.1,-0.41 0.25,-0.72 0.03,-0.05 0.06,-0.1 0.1,-0.13 l 0.2,-0.2 C 11.58,9.41 11.62,9.39 11.66,9.36 11.57,9.33 11.5,9.31 11.47,9.3 H 11.44 C 11.17,9.29 10.98,9.07 10.98,8.8 c 0,-0.28 0.24,-0.5 0.52,-0.5 0.15,-0.05 0.26,-0.1 0.4,-0.1 l 0.394,-0.066 c 1.71,-0.29 3.716,0.106 5.526,1.016 0.85,0.47 1.49,0.96 1.95,1.5 0.85,0.18 1.87,0.49 2.58,1.2 1.66,1.65 3.16,5.15 2.99,7.69 l 0.09,-0.03 c 1.22,-0.32 2.89,-0.76 3.48,-0.97 0.71,-0.33 2.72,-0.17 3.19,0.71 0.17,0.33 0.28,0.99 -0.95,1.69 -1.05,0.62 -3.78,1.63 -5.81,2.24 -1.01,0.32 -1.85,0.18 -2.47,0.08 -0.71,-0.12 -0.89,-0.12 -1.06,0.13 -0.11,0.17 -0.13,0.35 -0.06,0.5 0.07,0.13 0.41,0.58 1.89,0.71 1.49,0.15 2.99,-0.2 4.19,-0.47 1.37,-0.32 2.45,-0.56 2.74,0.31 0.07,0.2 0.1,0.52 -0.15,0.88 -0.69,1.03 -3.36,1.8 -4.89,1.88 0,0 0,0 -0.01,0 -1.47,0 -4.15,-0.74 -5.55,-1.28 -0.07,1.26 0.3,2.96 1.11,4.99 1.18,-0.86 2.89,-1.99 3.59,-1.91 0.41,0.07 0.79,0.4 0.95,2.37 0.11,1.46 0.09,3.25 -0.66,3.51 -0.17,0.05 -0.5,0.16 -2.13,-0.4 0.17,0.32 0.34,0.65 0.52,1 0.02,0.04 0.04,0.09 0.06,0.14 0.17,-0.03 0.33,-0.06 0.5,-0.11 0.213,-0.052 0.292,-0.073 0.42,-0.12 0.45,-0.12 0.88,-0.26 1.31,-0.42 0.47,-0.58 0.63,-1.77 0.48,-3.64 -0.13,-1.58 -0.41,-2.66 -1.39,-2.82 -0.24,-0.03 -0.95,-0.12 -3.41,1.62 -0.5,-1.35 -0.78,-2.54 -0.84,-3.49 1.46,0.49 3.68,1.06 5.07,1.06 1.64,-0.09 4.46,-0.88 5.29,-2.1 0.28,-0.41 0.35,-0.88 0.21,-1.32 -0.43,-1.3 -1.91,-0.96 -3.33,-0.64 -1.17,0.27 -2.62,0.6 -4.03,0.46 -1.18,-0.1 -1.46,-0.4 -1.5,-0.41 0.09,-0.02 0.44,0.04 0.6,0.06 0.63,0.11 1.58,0.26 2.7,-0.09 2.05,-0.62 4.83,-1.65 5.9,-2.29 1.72,-0.97 1.31,-2.05 1.15,-2.36 z"
     opacity="0.05"
     id="path20" />
</svg>
