<?xml version="1.0" encoding="UTF-8" standalone="no"?>
<svg
   width="60"
   height="59.999989"
   viewBox="0 0 60 59.999989"
   fill="none"
   version="1.1"
   id="svg27"
   xmlns="http://www.w3.org/2000/svg"
   xmlns:svg="http://www.w3.org/2000/svg">
  <defs
     id="defs27" />
  <path
     d="m 30,4.23428 c 5.096,0 10.0775,1.51114 14.3147,4.34231 4.2371,2.83121 7.5396,6.85521 9.4897,11.56331 1.9502,4.7081 2.4604,9.8887 1.4662,14.8867 -0.9941,4.9981 -3.4481,9.5891 -7.0515,13.1925 -3.6034,3.6034 -8.1944,6.0573 -13.1925,7.0515 -4.998,0.9942 -10.1786,0.484 -14.8867,-1.4662 C 15.4318,51.8543 11.4078,48.5518 8.5765997,44.3147 5.7454297,40.0775 4.2342997,35.096 4.2342997,30 4.2422397,23.1689 6.9593797,16.6199 11.7897,11.7897 16.62,6.95937 23.169,4.24222 30,4.23428 Z M 30,0 C 24.0666,0 18.2664,1.75947 13.3329,5.05591 8.3994297,8.35235 4.5542597,13.0377 2.2836297,18.5195 0.01299828,24.0013 -0.58110132,30.0333 0.57645468,35.8527 1.7340097,41.6721 4.5912297,47.0176 8.7868097,51.2132 12.9824,55.4088 18.3279,58.266 24.1473,59.4235 29.9667,60.5811 35.9987,59.987 41.4805,57.7164 46.9623,55.4457 51.6476,51.6006 54.9441,46.6671 58.2405,41.7336 60,35.9334 60,30 60,22.0435 56.8393,14.4129 51.2132,8.78679 45.5871,3.1607 37.9565,0 30,0 Z"
     fill="#000000"
     id="path1" />
  <path
     d="m 25.2211,42.9474 v -3.0316 h -1.4527 c -1.8,0 -2.4316,-1.0737 -2.4316,-2.7474 v -2.621 c 0,-2.2421 -0.9157,-3.9474 -3,-4.6421 2.0843,-0.7264 3,-2.4 3,-4.6737 v -2.5895 c 0,-1.6737 0.6316,-2.7474 2.4316,-2.7474 h 1.4527 v -3.0315 h -2.6527 c -3.1263,0 -5.2737,1.8631 -5.2737,5.2421 v 3.8842 c 0,1.3579 -0.4421,2.4 -2.1789,2.4 H 13.6 v 3.0316 h 1.5158 c 1.7368,0 2.1789,1.0421 2.1789,2.4 v 3.8842 c 0,3.3789 2.1474,5.2421 5.2737,5.2421 z"
     fill="#000000"
     id="path2" />
  <path
     d="M 45.9102,31.4211 V 28.3895 H 44.426 c -1.7369,0 -2.2105,-1.0106 -2.2105,-2.4 v -3.8842 c 0,-3.379 -2.1158,-5.2421 -5.2421,-5.2421 h -2.6843 v 3.0315 h 1.4527 c 1.8316,0 2.4316,1.0737 2.4316,2.7474 v 2.6211 c 0,2.2421 0.9473,3.9473 3,4.6421 -2.0527,0.7263 -3,2.4 -3,4.6736 v 2.5895 c 0,1.6737 -0.6,2.7474 -2.4316,2.7474 h -1.4527 v 3.0316 h 2.6843 c 3.1263,0 5.2421,-1.8632 5.2421,-5.2421 v -3.8842 c 0,-1.3579 0.4736,-2.4 2.2105,-2.4 z"
     fill="#000000"
     id="path3" />
</svg>
