<?xml version="1.0" encoding="UTF-8" standalone="no"?>
<svg
   width="25.995874"
   height="27.999987"
   viewBox="0 0 25.995874 27.999987"
   fill="none"
   version="1.1"
   id="svg14"
   xmlns="http://www.w3.org/2000/svg"
   xmlns:svg="http://www.w3.org/2000/svg">
  <g
     clip-path="url(#clip0_534_3262)"
     id="g12"
     transform="translate(-1.25885e-4)">
    <path
       d="M 45.2145,22.3052 H 41.6038 L 38.187,16.3927 h -2.5445 v 5.9125 H 32.2983 V 5.27319 h 6.7853 c 1.5671,0 2.8999,0.55152 3.9984,1.65454 1.0986,1.10303 1.6479,2.43315 1.6479,3.99037 0,1.0544 -0.2989,2.0357 -0.8966,2.9441 -0.5978,0.8922 -1.3894,1.5653 -2.3749,2.0195 z M 39.0836,8.41195 h -3.4411 v 5.03665 h 3.4411 c 0.63,0 1.1712,-0.2433 1.6236,-0.73 0.4523,-0.5028 0.6785,-1.103 0.6785,-1.8005 0,-0.6975 -0.2262,-1.28957 -0.6785,-1.7762 C 40.2548,8.65527 39.7136,8.41195 39.0836,8.41195 Z"
       fill="#157cd5"
       id="path1" />
    <path
       d="M 58.6849,17.5119 H 49.549 c 0.4039,1.5248 1.5429,2.2872 3.4169,2.2872 1.1955,0 2.1002,-0.4055 2.7141,-1.2166 l 2.5202,1.4599 c -1.1955,1.7356 -2.9564,2.6035 -5.2828,2.6035 -2.0032,0 -3.6107,-0.6083 -4.8223,-1.8249 -1.2117,-1.2166 -1.8175,-2.7495 -1.8175,-4.5986 0,-1.8168 0.5977,-3.3416 1.7932,-4.5744 1.1794,-1.2328 2.7141,-1.84915 4.6043,-1.84915 1.7932,0 3.2553,0.61635 4.3862,1.84915 1.1632,1.2328 1.7448,2.7576 1.7448,4.5744 0,0.3406 -0.0404,0.7704 -0.1212,1.2895 z M 49.5006,15.0788 H 55.68 c -0.1777,-0.7949 -0.5412,-1.4031 -1.0905,-1.8249 -0.5331,-0.4217 -1.1713,-0.6326 -1.9144,-0.6326 -0.8401,0 -1.5348,0.219 -2.084,0.6569 -0.5493,0.4218 -0.9128,1.022 -1.0905,1.8006 z"
       fill="#157cd5"
       id="path2" />
    <path
       d="m 66.0159,18.6555 2.9565,-8.516 h 3.4411 L 67.8092,22.3052 H 64.2469 L 59.6427,10.1395 h 3.441 z"
       fill="#157cd5"
       id="path3" />
    <path
       d="m 85.7094,17.5119 h -9.1358 c 0.4039,1.5248 1.5428,2.2872 3.4168,2.2872 1.1955,0 2.1002,-0.4055 2.7141,-1.2166 l 2.5203,1.4599 c -1.1955,1.7356 -2.9564,2.6035 -5.2828,2.6035 -2.0033,0 -3.6107,-0.6083 -4.8224,-1.8249 -1.2116,-1.2166 -1.8175,-2.7495 -1.8175,-4.5986 0,-1.8168 0.5978,-3.3416 1.7933,-4.5744 1.1793,-1.2328 2.7141,-1.84915 4.6043,-1.84915 1.7932,0 3.2553,0.61635 4.3861,1.84915 1.1632,1.2328 1.7448,2.7576 1.7448,4.5744 0,0.3406 -0.0404,0.7704 -0.1212,1.2895 z m -9.1843,-2.4331 h 6.1794 c -0.1777,-0.7949 -0.5412,-1.4031 -1.0904,-1.8249 -0.5332,-0.4217 -1.1713,-0.6326 -1.9144,-0.6326 -0.8401,0 -1.5348,0.219 -2.0841,0.6569 -0.5493,0.4218 -0.9128,1.022 -1.0905,1.8006 z"
       fill="#157cd5"
       id="path4" />
    <path
       d="m 91.6236,10.1395 v 2.0925 c 0.2747,-0.7624 0.7432,-1.3382 1.4055,-1.7275 0.6624,-0.4056 1.4217,-0.60833 2.2779,-0.60833 v 3.50373 c -0.9531,-0.1298 -1.8094,0.0649 -2.5687,0.584 -0.7431,0.5028 -1.1147,1.3382 -1.1147,2.5061 v 5.8152 h -3.126 V 10.1395 Z"
       fill="#157cd5"
       id="path5" />
    <path
       d="m 100.125,13.5946 c 0,0.519 0.735,0.9651 2.205,1.3382 0.517,0.1135 0.986,0.2514 1.406,0.4136 0.42,0.146 0.84,0.365 1.26,0.657 0.436,0.2757 0.775,0.6488 1.018,1.1192 0.242,0.4704 0.363,1.0138 0.363,1.6302 0,1.249 -0.468,2.2142 -1.405,2.8955 -0.937,0.665 -2.092,0.9976 -3.466,0.9976 -2.4876,0 -4.1839,-0.9652 -5.0886,-2.8955 l 2.7141,-1.5329 c 0.3716,1.0544 1.1635,1.5816 2.3745,1.5816 1.115,0 1.672,-0.3488 1.672,-1.0463 0,-0.519 -0.735,-0.9651 -2.205,-1.3382 -0.549,-0.146 -1.0176,-0.292 -1.4053,-0.438 -0.3877,-0.146 -0.8078,-0.3568 -1.2601,-0.6326 -0.4524,-0.292 -0.7997,-0.6569 -1.042,-1.0949 -0.2262,-0.4542 -0.3393,-0.9814 -0.3393,-1.5816 0,-1.2003 0.4362,-2.1411 1.3086,-2.8224 0.8885,-0.6975 1.9871,-1.04625 3.2961,-1.04625 0.985,0 1.882,0.22705 2.689,0.68125 0.808,0.438 1.446,1.0706 1.915,1.8979 l -2.666,1.4599 c -0.388,-0.8273 -1.034,-1.2409 -1.938,-1.2409 -0.404,0 -0.744,0.0973 -1.018,0.2919 -0.259,0.1785 -0.388,0.4137 -0.388,0.7057 z"
       fill="#157cd5"
       id="path6" />
    <path
       d="m 119.03,20.7967 c -1.228,1.2328 -2.747,1.8492 -4.556,1.8492 -1.809,0 -3.328,-0.6164 -4.556,-1.8492 -1.228,-1.2328 -1.841,-2.7576 -1.841,-4.5743 0,-1.8006 0.613,-3.3172 1.841,-4.55 1.244,-1.249 2.763,-1.87355 4.556,-1.87355 1.793,0 3.312,0.62455 4.556,1.87355 1.244,1.249 1.866,2.7656 1.866,4.55 0,1.8005 -0.622,3.3253 -1.866,4.5743 z m -6.907,-2.1655 c 0.63,0.6326 1.414,0.9489 2.351,0.9489 0.937,0 1.721,-0.3163 2.351,-0.9489 0.63,-0.6327 0.945,-1.4356 0.945,-2.4088 0,-0.9733 -0.315,-1.7762 -0.945,-2.4089 -0.63,-0.6326 -1.414,-0.9489 -2.351,-0.9489 -0.937,0 -1.721,0.3163 -2.351,0.9489 -0.613,0.6489 -0.92,1.4518 -0.92,2.4089 0,0.957 0.307,1.7599 0.92,2.4088 z"
       fill="#157cd5"
       id="path7" />
    <g
       clip-path="url(#clip1_534_3262)"
       id="g11">
      <g
         clip-path="url(#clip2_534_3262)"
         id="g10">
        <path
           fill-rule="evenodd"
           clip-rule="evenodd"
           d="m 10.9676,14.2506 c -0.4017,0 -0.738,0.4662 -1.02058,0.7528 -0.25769,0.2614 -0.61535,0.4234 -1.01069,0.4234 -0.78517,0 -1.42168,-0.6388 -1.42168,-1.4268 0,-0.788 0.63651,-1.4268 1.42168,-1.4268 0.44034,0 0.83393,0.201 1.09467,0.5164 0.2429,0.2938 0.5562,0.7554 0.9366,0.7554 0.3804,0 0.6937,-0.4616 0.9366,-0.7554 0.2607,-0.3154 0.6543,-0.5164 1.0947,-0.5164 0.4405,0 0.8343,0.2012 1.0951,0.5169 0.2425,0.2936 0.5555,0.7549 0.9356,0.7549 0.38,0 0.693,-0.4613 0.9355,-0.7549 0.2608,-0.3157 0.6546,-0.5169 1.0951,-0.5169 0.7852,0 1.4217,0.6388 1.4217,1.4268 0,0.788 -0.6365,1.4268 -1.4217,1.4268 -0.3955,0 -0.7534,-0.1622 -1.0111,-0.4238 -0.2822,-0.2865 -0.6182,-0.7524 -1.0195,-0.7524 -0.4014,0 -0.7374,0.4659 -1.0196,0.7524 -0.2577,0.2616 -0.6156,0.4238 -1.0111,0.4238 -0.3954,0 -0.753,-0.162 -1.0107,-0.4234 -0.2825,-0.2866 -0.6189,-0.7528 -1.0206,-0.7528 z"
           fill="#157cd5"
           id="path8" />
        <path
           fill-rule="evenodd"
           clip-rule="evenodd"
           d="M 4.6151,5.27122 11.5537,0.0829502 C 11.8264,-0.120973 12.2142,0.0743616 12.2142,0.415673 V 3.42188 h 3.243 c 5.8204,0 10.5388,4.73533 10.5388,10.57662 0,1.368 -0.2588,2.6754 -0.73,3.8754 -0.0899,0.2292 -0.3626,0.3176 -0.5751,0.1945 l -2.4577,-1.4241 c -0.1757,-0.1018 -0.2505,-0.3161 -0.1882,-0.5099 0.2164,-0.6729 0.3334,-1.3907 0.3334,-2.1359 0,-3.8362 -3.0987,-6.94602 -6.9212,-6.94602 h -4e-4 -2.1054 V 7.05232 H 5.67883 c -1.60395,0 -1.75141,-1.34568 -1.06373,-1.7811 z"
           fill="#157cd5"
           id="path9" />
        <path
           fill-rule="evenodd"
           clip-rule="evenodd"
           d="m 21.381,22.7288 -6.9386,5.1882 c -0.2727,0.204 -0.6605,0.0086 -0.6605,-0.3327 v -3.0062 h -3.243 C 4.71849,24.5781 1.25885e-4,19.8428 1.25885e-4,14.0015 1.25885e-4,12.6335 0.258919,11.3261 0.730051,10.1261 0.820004,9.89693 1.09266,9.8085 1.30518,9.93163 l 2.45773,1.42407 c 0.17572,0.1018 0.25052,0.3161 0.18819,0.5099 -0.21644,0.6729 -0.33337,1.3907 -0.33337,2.1359 0,3.8362 3.09871,6.946 6.92117,6.946 h 4e-4 2.1054 v 2e-4 h 7.6726 c 1.6039,0 1.7514,1.3457 1.0637,1.7811 z"
           fill="#ec523b"
           id="path10" />
      </g>
    </g>
  </g>
  <defs
     id="defs14">
    <clipPath
       id="clip0_534_3262">
      <rect
         width="121"
         height="28"
         fill="#ffffff"
         id="rect12"
         x="0"
         y="0" />
    </clipPath>
    <clipPath
       id="clip1_534_3262">
      <rect
         width="25.996099"
         height="28"
         fill="#ffffff"
         id="rect13"
         x="0"
         y="0" />
    </clipPath>
    <clipPath
       id="clip2_534_3262">
      <rect
         width="25.996099"
         height="28"
         fill="#ffffff"
         id="rect14"
         x="0"
         y="0" />
    </clipPath>
  </defs>
</svg>
